<mxfile host="app.diagrams.net" agent="Mozilla/5.0 (Windows NT 10.0; Win64; x64) AppleWebKit/537.36 (KHTML, like Gecko) Chrome/134.0.0.0 Safari/537.36" version="26.1.2">
  <diagram name="Page-1" id="K6Z6bMAgS1XEfs09Odqb">
    <mxGraphModel dx="1218" dy="639" grid="1" gridSize="10" guides="1" tooltips="1" connect="1" arrows="1" fold="1" page="1" pageScale="1" pageWidth="850" pageHeight="1100" math="0" shadow="0">
      <root>
        <mxCell id="0" />
        <mxCell id="1" parent="0" />
        <mxCell id="LEkHShG5RHNfsac3oUmj-2" value="login" style="html=1;verticalAlign=bottom;startArrow=oval;startFill=1;endArrow=block;startSize=8;curved=0;rounded=0;" edge="1" parent="1">
          <mxGeometry x="0.0115" width="60" relative="1" as="geometry">
            <mxPoint x="340" y="100" as="sourcePoint" />
            <mxPoint x="480" y="100" as="targetPoint" />
            <mxPoint as="offset" />
          </mxGeometry>
        </mxCell>
        <mxCell id="LEkHShG5RHNfsac3oUmj-7" value=": Student" style="shape=umlLifeline;perimeter=lifelinePerimeter;whiteSpace=wrap;html=1;container=1;dropTarget=0;collapsible=0;recursiveResize=0;outlineConnect=0;portConstraint=eastwest;newEdgeStyle={&quot;curved&quot;:0,&quot;rounded&quot;:0};" vertex="1" parent="1">
          <mxGeometry x="440" y="40" width="100" height="460" as="geometry" />
        </mxCell>
        <mxCell id="LEkHShG5RHNfsac3oUmj-8" value=": Subject" style="shape=umlLifeline;perimeter=lifelinePerimeter;whiteSpace=wrap;html=1;container=1;dropTarget=0;collapsible=0;recursiveResize=0;outlineConnect=0;portConstraint=eastwest;newEdgeStyle={&quot;curved&quot;:0,&quot;rounded&quot;:0};" vertex="1" parent="1">
          <mxGeometry x="720" y="40" width="120" height="450" as="geometry" />
        </mxCell>
        <mxCell id="LEkHShG5RHNfsac3oUmj-9" value="" style="html=1;points=[[0,0,0,0,5],[0,1,0,0,-5],[1,0,0,0,5],[1,1,0,0,-5]];perimeter=orthogonalPerimeter;outlineConnect=0;targetShapes=umlLifeline;portConstraint=eastwest;newEdgeStyle={&quot;curved&quot;:0,&quot;rounded&quot;:0};" vertex="1" parent="LEkHShG5RHNfsac3oUmj-8">
          <mxGeometry x="55" y="80" width="10" height="40" as="geometry" />
        </mxCell>
        <mxCell id="LEkHShG5RHNfsac3oUmj-10" value="getAssessments(): Assessments[]" style="html=1;verticalAlign=bottom;endArrow=block;curved=0;rounded=0;entryX=0;entryY=0;entryDx=0;entryDy=5;" edge="1" target="LEkHShG5RHNfsac3oUmj-9" parent="1" source="LEkHShG5RHNfsac3oUmj-7">
          <mxGeometry relative="1" as="geometry">
            <mxPoint x="585" y="125" as="sourcePoint" />
          </mxGeometry>
        </mxCell>
        <mxCell id="LEkHShG5RHNfsac3oUmj-11" value="return" style="html=1;verticalAlign=bottom;endArrow=open;dashed=1;endSize=8;curved=0;rounded=0;" edge="1" parent="1">
          <mxGeometry relative="1" as="geometry">
            <mxPoint x="489.92857142857133" y="140" as="targetPoint" />
            <mxPoint x="760" y="140" as="sourcePoint" />
            <Array as="points">
              <mxPoint x="640" y="140" />
            </Array>
          </mxGeometry>
        </mxCell>
        <mxCell id="LEkHShG5RHNfsac3oUmj-12" value="Assessment[i] : Assessments" style="shape=umlLifeline;perimeter=lifelinePerimeter;whiteSpace=wrap;html=1;container=1;dropTarget=0;collapsible=0;recursiveResize=0;outlineConnect=0;portConstraint=eastwest;newEdgeStyle={&quot;curved&quot;:0,&quot;rounded&quot;:0};" vertex="1" parent="1">
          <mxGeometry x="920" y="40" width="120" height="470" as="geometry" />
        </mxCell>
        <mxCell id="LEkHShG5RHNfsac3oUmj-13" value="" style="html=1;points=[[0,0,0,0,5],[0,1,0,0,-5],[1,0,0,0,5],[1,1,0,0,-5]];perimeter=orthogonalPerimeter;outlineConnect=0;targetShapes=umlLifeline;portConstraint=eastwest;newEdgeStyle={&quot;curved&quot;:0,&quot;rounded&quot;:0};" vertex="1" parent="LEkHShG5RHNfsac3oUmj-12">
          <mxGeometry x="55" y="180" width="10" height="130" as="geometry" />
        </mxCell>
        <mxCell id="LEkHShG5RHNfsac3oUmj-37" value="" style="html=1;points=[[0,0,0,0,5],[0,1,0,0,-5],[1,0,0,0,5],[1,1,0,0,-5]];perimeter=orthogonalPerimeter;outlineConnect=0;targetShapes=umlLifeline;portConstraint=eastwest;newEdgeStyle={&quot;curved&quot;:0,&quot;rounded&quot;:0};" vertex="1" parent="LEkHShG5RHNfsac3oUmj-12">
          <mxGeometry x="55" y="340" width="10" height="130" as="geometry" />
        </mxCell>
        <mxCell id="LEkHShG5RHNfsac3oUmj-15" value="uploadSubmission(File: fileName): boolean" style="html=1;verticalAlign=bottom;endArrow=block;curved=0;rounded=0;" edge="1" parent="1">
          <mxGeometry relative="1" as="geometry">
            <mxPoint x="500" y="240" as="sourcePoint" />
            <mxPoint x="960" y="240" as="targetPoint" />
            <mxPoint as="offset" />
          </mxGeometry>
        </mxCell>
        <mxCell id="LEkHShG5RHNfsac3oUmj-19" value="fileName" style="html=1;verticalAlign=bottom;startArrow=oval;startFill=1;endArrow=block;startSize=8;curved=0;rounded=0;" edge="1" parent="1">
          <mxGeometry x="0.0122" width="60" relative="1" as="geometry">
            <mxPoint x="340" y="220" as="sourcePoint" />
            <mxPoint x="480" y="220" as="targetPoint" />
            <mxPoint as="offset" />
          </mxGeometry>
        </mxCell>
        <mxCell id="LEkHShG5RHNfsac3oUmj-23" value="noteContent" style="html=1;verticalAlign=bottom;startArrow=oval;startFill=1;endArrow=block;startSize=8;curved=0;rounded=0;" edge="1" parent="1">
          <mxGeometry x="0.0115" width="60" relative="1" as="geometry">
            <mxPoint x="340" y="380" as="sourcePoint" />
            <mxPoint x="480" y="380" as="targetPoint" />
            <mxPoint as="offset" />
          </mxGeometry>
        </mxCell>
        <mxCell id="LEkHShG5RHNfsac3oUmj-26" value="createSubmission(File: fileName) : boolean" style="html=1;verticalAlign=bottom;endArrow=block;curved=0;rounded=0;" edge="1" parent="1" target="LEkHShG5RHNfsac3oUmj-27">
          <mxGeometry relative="1" as="geometry">
            <mxPoint x="990" y="259.76000000000005" as="sourcePoint" />
            <mxPoint x="1170" y="259.76000000000005" as="targetPoint" />
            <mxPoint as="offset" />
          </mxGeometry>
        </mxCell>
        <mxCell id="LEkHShG5RHNfsac3oUmj-27" value=": Submission" style="shape=umlLifeline;perimeter=lifelinePerimeter;whiteSpace=wrap;html=1;container=1;dropTarget=0;collapsible=0;recursiveResize=0;outlineConnect=0;portConstraint=eastwest;newEdgeStyle={&quot;curved&quot;:0,&quot;rounded&quot;:0};" vertex="1" parent="1">
          <mxGeometry x="1200" y="40" width="120" height="490" as="geometry" />
        </mxCell>
        <mxCell id="LEkHShG5RHNfsac3oUmj-28" value="" style="html=1;points=[[0,0,0,0,5],[0,1,0,0,-5],[1,0,0,0,5],[1,1,0,0,-5]];perimeter=orthogonalPerimeter;outlineConnect=0;targetShapes=umlLifeline;portConstraint=eastwest;newEdgeStyle={&quot;curved&quot;:0,&quot;rounded&quot;:0};" vertex="1" parent="LEkHShG5RHNfsac3oUmj-27">
          <mxGeometry x="55" y="200" width="10" height="100" as="geometry" />
        </mxCell>
        <mxCell id="LEkHShG5RHNfsac3oUmj-31" value="" style="html=1;points=[[0,0,0,0,5],[0,1,0,0,-5],[1,0,0,0,5],[1,1,0,0,-5]];perimeter=orthogonalPerimeter;outlineConnect=0;targetShapes=umlLifeline;portConstraint=eastwest;newEdgeStyle={&quot;curved&quot;:0,&quot;rounded&quot;:0};" vertex="1" parent="LEkHShG5RHNfsac3oUmj-27">
          <mxGeometry x="58" y="240" width="10" height="40" as="geometry" />
        </mxCell>
        <mxCell id="LEkHShG5RHNfsac3oUmj-32" value="verifyFile(File: fileName): boolean" style="html=1;align=left;spacingLeft=2;endArrow=block;rounded=0;edgeStyle=orthogonalEdgeStyle;curved=0;rounded=0;" edge="1" target="LEkHShG5RHNfsac3oUmj-31" parent="LEkHShG5RHNfsac3oUmj-27">
          <mxGeometry relative="1" as="geometry">
            <mxPoint x="63" y="220" as="sourcePoint" />
            <Array as="points">
              <mxPoint x="93" y="250" />
            </Array>
          </mxGeometry>
        </mxCell>
        <mxCell id="LEkHShG5RHNfsac3oUmj-39" value="" style="html=1;points=[[0,0,0,0,5],[0,1,0,0,-5],[1,0,0,0,5],[1,1,0,0,-5]];perimeter=orthogonalPerimeter;outlineConnect=0;targetShapes=umlLifeline;portConstraint=eastwest;newEdgeStyle={&quot;curved&quot;:0,&quot;rounded&quot;:0};" vertex="1" parent="LEkHShG5RHNfsac3oUmj-27">
          <mxGeometry x="55" y="360" width="10" height="130" as="geometry" />
        </mxCell>
        <mxCell id="LEkHShG5RHNfsac3oUmj-33" value="return sucess" style="html=1;verticalAlign=bottom;endArrow=open;dashed=1;endSize=8;curved=0;rounded=0;" edge="1" parent="1" target="LEkHShG5RHNfsac3oUmj-12">
          <mxGeometry relative="1" as="geometry">
            <mxPoint x="1250" y="330" as="sourcePoint" />
            <mxPoint x="1170" y="330" as="targetPoint" />
          </mxGeometry>
        </mxCell>
        <mxCell id="LEkHShG5RHNfsac3oUmj-35" value="return sucess" style="html=1;verticalAlign=bottom;endArrow=open;dashed=1;endSize=8;curved=0;rounded=0;" edge="1" parent="1" target="LEkHShG5RHNfsac3oUmj-7">
          <mxGeometry relative="1" as="geometry">
            <mxPoint x="980" y="340" as="sourcePoint" />
            <mxPoint x="710" y="340" as="targetPoint" />
          </mxGeometry>
        </mxCell>
        <mxCell id="LEkHShG5RHNfsac3oUmj-36" value="confirmSubmission( note: String): void" style="html=1;verticalAlign=bottom;endArrow=block;curved=0;rounded=0;" edge="1" parent="1">
          <mxGeometry relative="1" as="geometry">
            <mxPoint x="500" y="390" as="sourcePoint" />
            <mxPoint x="960" y="390" as="targetPoint" />
            <mxPoint as="offset" />
          </mxGeometry>
        </mxCell>
        <mxCell id="LEkHShG5RHNfsac3oUmj-38" value="confirmSubmission(note: String): void" style="html=1;verticalAlign=bottom;endArrow=block;curved=0;rounded=0;" edge="1" parent="1">
          <mxGeometry relative="1" as="geometry">
            <mxPoint x="990" y="410" as="sourcePoint" />
            <mxPoint x="1250" y="410" as="targetPoint" />
            <mxPoint as="offset" />
          </mxGeometry>
        </mxCell>
        <mxCell id="LEkHShG5RHNfsac3oUmj-40" value=": Receipt" style="shape=umlLifeline;perimeter=lifelinePerimeter;whiteSpace=wrap;html=1;container=1;dropTarget=0;collapsible=0;recursiveResize=0;outlineConnect=0;portConstraint=eastwest;newEdgeStyle={&quot;curved&quot;:0,&quot;rounded&quot;:0};" vertex="1" parent="1">
          <mxGeometry x="1530" y="410" width="120" height="110" as="geometry" />
        </mxCell>
        <mxCell id="LEkHShG5RHNfsac3oUmj-45" value="createReceipt(StatusEnum: status): void&amp;nbsp;" style="html=1;verticalAlign=bottom;endArrow=block;curved=0;rounded=0;" edge="1" parent="1">
          <mxGeometry x="-0.001" relative="1" as="geometry">
            <mxPoint x="1275" y="430" as="sourcePoint" />
            <mxPoint x="1520" y="430" as="targetPoint" />
            <mxPoint as="offset" />
          </mxGeometry>
        </mxCell>
        <mxCell id="LEkHShG5RHNfsac3oUmj-48" value=": EmailService" style="shape=umlLifeline;perimeter=lifelinePerimeter;whiteSpace=wrap;html=1;container=1;dropTarget=0;collapsible=0;recursiveResize=0;outlineConnect=0;portConstraint=eastwest;newEdgeStyle={&quot;curved&quot;:0,&quot;rounded&quot;:0};" vertex="1" parent="1">
          <mxGeometry x="1760" y="40" width="100" height="500" as="geometry" />
        </mxCell>
        <mxCell id="LEkHShG5RHNfsac3oUmj-49" value="" style="html=1;points=[[0,0,0,0,5],[0,1,0,0,-5],[1,0,0,0,5],[1,1,0,0,-5]];perimeter=orthogonalPerimeter;outlineConnect=0;targetShapes=umlLifeline;portConstraint=eastwest;newEdgeStyle={&quot;curved&quot;:0,&quot;rounded&quot;:0};" vertex="1" parent="LEkHShG5RHNfsac3oUmj-48">
          <mxGeometry x="45" y="420" width="10" height="80" as="geometry" />
        </mxCell>
        <mxCell id="LEkHShG5RHNfsac3oUmj-44" value="" style="html=1;points=[[0,0,0,0,5],[0,1,0,0,-5],[1,0,0,0,5],[1,1,0,0,-5]];perimeter=orthogonalPerimeter;outlineConnect=0;targetShapes=umlLifeline;portConstraint=eastwest;newEdgeStyle={&quot;curved&quot;:0,&quot;rounded&quot;:0};" vertex="1" parent="1">
          <mxGeometry x="1585" y="460" width="10" height="50" as="geometry" />
        </mxCell>
        <mxCell id="LEkHShG5RHNfsac3oUmj-50" value="sendEmail(Receipt: this): void" style="html=1;verticalAlign=bottom;endArrow=block;curved=0;rounded=0;" edge="1" parent="1" target="LEkHShG5RHNfsac3oUmj-48">
          <mxGeometry x="-0.001" relative="1" as="geometry">
            <mxPoint x="1607.5" y="480" as="sourcePoint" />
            <mxPoint x="1710" y="480" as="targetPoint" />
            <mxPoint as="offset" />
          </mxGeometry>
        </mxCell>
      </root>
    </mxGraphModel>
  </diagram>
</mxfile>
